<svg xmlns="http://www.w3.org/2000/svg" viewBox="0 0 448 512" width="24" height="24" fill="white">
  <path d="M100.28 448H7.4V148.9h92.88zm-46.44-340c-31.3 0-56.56-25.25-56.56-56.54A56.6 56.6 0 0153.84 0a56.56 56.56 0 0156.44 56.54 56.57 56.57 0 01-56.44 56.46zM447.9 448h-92.68V302.4c0-34.7-12.44-58.4-43.64-58.4-23.82 0-38.02 16.08-44.3 31.62-2.28 5.56-2.84 13.28-2.84 21v151.4H171.5s1.24-246 0-271.1h92.68v38.4c-0.2 0.3-0.5 0.6-0.7 0.9h0.7v-0.9c12.34-19 34.5-46 84-46 61.38 0 107.3 40 107.3 126.1V448z"/>
</svg>